<svg width="200" height="200" viewBox="0 0 200 200" fill="none" xmlns="http://www.w3.org/2000/svg">
<path id="Subtract" fill-rule="evenodd" clip-rule="evenodd" d="M195.43 70.0251C197.567 76.8346 198.995 83.9579 199.628 91.3084L108.692 0.372483C116.042 1.00534 123.165 2.43338 129.975 4.57016L195.43 70.0251ZM100 0C102.406 0 104.793 0.0850052 107.157 0.252177L199.748 92.8429C199.915 95.2069 200 97.5935 200 100C200 102.965 199.871 105.9 199.618 108.799L91.2008 0.381804C94.1002 0.129038 97.035 0 100 0ZM193.599 135.28C195.066 131.389 196.298 127.382 197.277 123.277L76.7233 2.72329C72.6183 3.70192 68.6115 4.93367 64.7202 6.4011L193.599 135.28ZM63.698 6.79306C59.9125 8.26849 56.2391 9.96787 52.6939 11.8749L188.125 147.306C190.032 143.761 191.732 140.087 193.207 136.302L63.698 6.79306ZM197.543 122.129C198.431 118.199 199.087 114.182 199.497 110.092L89.9077 0.502955C85.8178 0.912839 81.8006 1.56916 77.8711 2.45684L197.543 122.129ZM194.746 67.9267C184.787 38.4981 161.502 15.2131 132.073 5.25435L194.746 67.9267ZM187.626 148.222L51.7784 12.3736C48.5929 14.1304 45.5134 16.0558 42.552 18.1378L181.862 157.448C183.944 154.487 185.87 151.407 187.626 148.222ZM174.034 167.224C171.483 170.032 168.774 172.695 165.921 175.197L25.612 34.8881L24.9049 35.5952L165.164 175.855C162.465 178.176 159.64 180.356 156.701 182.382L17.6179 43.2987C21.9947 36.9517 27.086 31.1354 32.7757 25.9659L174.034 167.224ZM174.704 166.48L33.5203 25.2962C36.1358 22.967 38.8745 20.773 41.7253 18.7253L181.275 158.275C179.227 161.126 177.033 163.864 174.704 166.48ZM133.85 194.126C137.713 192.736 141.465 191.116 145.091 189.281L10.7189 54.9091C8.88409 58.5348 7.26366 62.2875 5.87428 66.1504L133.85 194.126ZM11.1982 53.9742L146.026 188.802C149.423 187.038 152.706 185.084 155.861 182.956L17.0444 44.1395C14.9158 47.2944 12.9624 50.5773 11.1982 53.9742ZM132.805 194.495L5.50502 67.1953C4.18413 71.0007 3.08662 74.9105 2.22818 78.9091L121.091 197.772C125.09 196.913 128.999 195.816 132.805 194.495ZM119.921 198.016L1.98428 80.0794C1.04544 84.7239 0.428443 89.485 0.157567 94.3386L105.661 199.842C110.515 199.572 115.276 198.955 119.921 198.016ZM100 200C101.445 200 102.883 199.969 104.313 199.909L0.0913535 95.6866C0.0306561 97.1168 0 98.5548 0 100C0 104.612 0.312231 109.151 0.916709 113.598L86.4024 199.083C90.8487 199.688 95.3879 200 100 200ZM84.7494 198.844C77.0354 197.664 69.6116 195.602 62.584 192.765L7.23501 137.416C4.39776 130.388 2.33593 122.965 1.15553 115.251L84.7494 198.844ZM8.25602 139.851C18.342 163.039 36.9612 181.658 60.1488 191.744L8.25602 139.851Z" fill="url(#paint0_linear_24_187)"/>
<defs>
<linearGradient id="paint0_linear_24_187" x1="-239" y1="42" x2="-131" y2="209" gradientUnits="userSpaceOnUse">
<stop stop-color="#2A9D8F"/>
<stop offset="0.489583" stop-color="#E9C46A" stop-opacity="0.79"/>
<stop offset="1" stop-color="#F4A261" stop-opacity="0.56"/>
</linearGradient>
</defs>
</svg>
